<mxfile host="app.diagrams.net" agent="Mozilla/5.0 (Windows NT 10.0; Win64; x64) AppleWebKit/537.36 (KHTML, like Gecko) Chrome/127.0.0.0 Safari/537.36" version="24.7.7">
  <diagram name="Página-1" id="u11wkcchWD_hNy68j2R0">
    <mxGraphModel dx="1434" dy="738" grid="1" gridSize="10" guides="1" tooltips="1" connect="1" arrows="1" fold="1" page="1" pageScale="1" pageWidth="827" pageHeight="1169" math="0" shadow="0">
      <root>
        <mxCell id="0" />
        <mxCell id="1" parent="0" />
        <mxCell id="ZlJAxigDW-jU4IPiT6wa-1" value="" style="whiteSpace=wrap;html=1;aspect=fixed;" vertex="1" parent="1">
          <mxGeometry x="40" y="20" width="130" height="130" as="geometry" />
        </mxCell>
        <mxCell id="ZlJAxigDW-jU4IPiT6wa-2" value="" style="rounded=1;whiteSpace=wrap;html=1;" vertex="1" parent="1">
          <mxGeometry x="20" y="10" width="780" height="150" as="geometry" />
        </mxCell>
        <mxCell id="ZlJAxigDW-jU4IPiT6wa-4" value="" style="shape=link;html=1;rounded=0;" edge="1" parent="1">
          <mxGeometry width="100" relative="1" as="geometry">
            <mxPoint x="690" y="70" as="sourcePoint" />
            <mxPoint x="740" y="70" as="targetPoint" />
          </mxGeometry>
        </mxCell>
        <mxCell id="ZlJAxigDW-jU4IPiT6wa-5" value="" style="shape=link;html=1;rounded=0;" edge="1" parent="1">
          <mxGeometry width="100" relative="1" as="geometry">
            <mxPoint x="690" y="90" as="sourcePoint" />
            <mxPoint x="740" y="90" as="targetPoint" />
          </mxGeometry>
        </mxCell>
        <mxCell id="ZlJAxigDW-jU4IPiT6wa-6" value="" style="shape=link;html=1;rounded=0;" edge="1" parent="1">
          <mxGeometry width="100" relative="1" as="geometry">
            <mxPoint x="690" y="110" as="sourcePoint" />
            <mxPoint x="740" y="110" as="targetPoint" />
          </mxGeometry>
        </mxCell>
        <mxCell id="ZlJAxigDW-jU4IPiT6wa-8" value="" style="endArrow=classic;html=1;rounded=0;exitX=0.34;exitY=0.025;exitDx=0;exitDy=0;exitPerimeter=0;" edge="1" parent="1" source="ZlJAxigDW-jU4IPiT6wa-9">
          <mxGeometry width="50" height="50" relative="1" as="geometry">
            <mxPoint x="620" y="220" as="sourcePoint" />
            <mxPoint x="700" y="130" as="targetPoint" />
          </mxGeometry>
        </mxCell>
        <mxCell id="ZlJAxigDW-jU4IPiT6wa-9" value="Barra de navegación" style="text;strokeColor=none;fillColor=none;html=1;fontSize=13;fontStyle=1;verticalAlign=middle;align=center;" vertex="1" parent="1">
          <mxGeometry x="710" y="170" width="100" height="40" as="geometry" />
        </mxCell>
        <mxCell id="ZlJAxigDW-jU4IPiT6wa-10" value="Logotipo Página" style="text;strokeColor=none;fillColor=none;html=1;fontSize=13;fontStyle=1;verticalAlign=middle;align=center;" vertex="1" parent="1">
          <mxGeometry x="50" y="65" width="100" height="40" as="geometry" />
        </mxCell>
        <mxCell id="ZlJAxigDW-jU4IPiT6wa-11" value="" style="swimlane;startSize=0;" vertex="1" parent="1">
          <mxGeometry x="40" y="25" width="120" height="120" as="geometry" />
        </mxCell>
        <mxCell id="ZlJAxigDW-jU4IPiT6wa-12" value="" style="rounded=0;whiteSpace=wrap;html=1;" vertex="1" parent="1">
          <mxGeometry x="30" y="200" width="760" height="150" as="geometry" />
        </mxCell>
        <mxCell id="ZlJAxigDW-jU4IPiT6wa-13" value="" style="whiteSpace=wrap;html=1;aspect=fixed;" vertex="1" parent="1">
          <mxGeometry x="30" y="200" width="150" height="150" as="geometry" />
        </mxCell>
        <mxCell id="ZlJAxigDW-jU4IPiT6wa-14" value="Imágen Descriptiva&lt;div&gt;del servicio&lt;/div&gt;" style="text;strokeColor=none;fillColor=none;html=1;fontSize=13;fontStyle=1;verticalAlign=middle;align=center;" vertex="1" parent="1">
          <mxGeometry x="55" y="255" width="100" height="40" as="geometry" />
        </mxCell>
        <mxCell id="ZlJAxigDW-jU4IPiT6wa-15" value="" style="swimlane;startSize=0;" vertex="1" parent="1">
          <mxGeometry x="470" y="215" width="300" height="115" as="geometry" />
        </mxCell>
        <mxCell id="ZlJAxigDW-jU4IPiT6wa-16" value="Descripción de los servicios" style="text;strokeColor=none;fillColor=none;html=1;fontSize=13;fontStyle=1;verticalAlign=middle;align=center;" vertex="1" parent="ZlJAxigDW-jU4IPiT6wa-15">
          <mxGeometry x="50" y="5" width="100" height="40" as="geometry" />
        </mxCell>
      </root>
    </mxGraphModel>
  </diagram>
</mxfile>
